<svg version="1.2" xmlns="http://www.w3.org/2000/svg" viewBox="0 0 460 460" width="460" height="460">
	<style>
		.s0 { fill: #1b88ca } 
	</style>
	<g id="레이어 1">
		<path id="Path 0" class="s0" d="m61.5 187.79c-2.75 0.95-7.25 3.05-10 4.66-2.75 1.62-7.17 5.21-9.83 7.99-2.65 2.78-6.11 7.76-7.68 11.06-1.57 3.3-3.4 8.93-4.08 12.5-0.94 5.01-0.96 8.1-0.07 13.5 0.63 3.85 2.44 9.7 4.01 13 1.58 3.3 4.85 8.22 7.26 10.93 2.41 2.72 6.87 6.56 9.89 8.54 3.02 1.98 8.43 4.42 12 5.43 4.74 1.33 8.8 1.71 15 1.42 7.21-0.34 9.64-0.95 16-3.99 4.13-1.97 9.3-5.14 11.5-7.04 2.2-1.9 5.64-5.89 7.65-8.87 2-2.98 4.64-8.34 5.85-11.92 1.82-5.37 2.14-8.15 1.82-16-0.33-8.18-0.83-10.44-3.6-16.25-1.77-3.71-5.58-9.26-8.47-12.34-2.89-3.07-7.5-6.85-10.25-8.4-2.75-1.55-7.48-3.54-10.5-4.43-3.1-0.9-8.98-1.58-13.5-1.56-4.88 0.03-9.95 0.72-13 1.77z"/>
		<path id="Path 1" fill-rule="evenodd" class="s0" d="m234.5 0.51c12.82 0.2 24.9 0.96 31 1.94 5.5 0.89 13.83 2.51 18.5 3.61 4.67 1.1 13.9 3.82 20.5 6.05 6.6 2.22 17.4 6.67 24 9.88 6.6 3.2 16.73 8.84 22.5 12.52 5.77 3.69 15.21 10.37 20.96 14.85 5.75 4.47 15.88 13.55 22.5 20.16 6.62 6.6 15.64 16.8 20.04 22.65 4.4 5.85 10.1 14.17 12.67 18.48 2.56 4.32 6.79 12.12 9.38 17.35 2.6 5.23 6.26 13.55 8.14 18.5 1.89 4.95 4.74 13.95 6.35 20 1.61 6.05 3.84 16.4 4.95 23 1.12 6.6 2.52 19.2 3.11 28 0.58 8.8 0.77 20.73 0.41 26.5-0.37 5.77-1.33 15.45-2.14 21.5-0.81 6.05-2.63 15.73-4.04 21.5-1.41 5.77-4.13 15-6.05 20.5-1.91 5.5-5.6 14.5-8.2 20-2.6 5.5-7.33 14.27-10.52 19.5-3.19 5.23-9 13.77-12.92 19-3.92 5.23-12.53 15.07-19.13 21.88-6.61 6.81-16.51 16.09-22.01 20.61-5.5 4.53-14.73 11.4-20.5 15.28-5.77 3.87-16.35 9.98-23.5 13.56-7.15 3.59-19.08 8.58-26.5 11.08-7.42 2.51-17.55 5.45-22.5 6.53-4.95 1.08-14.63 2.67-21.5 3.52-6.88 0.85-19.02 1.55-27 1.55-7.98 0-19.23-0.46-25-1.02-5.77-0.57-15.45-1.95-21.5-3.08-6.05-1.12-15.05-3.18-20-4.56-4.95-1.38-13.27-4.1-18.5-6.05-5.23-1.94-15.13-6.37-22-9.85-6.88-3.47-17-9.32-22.5-12.98-5.5-3.66-14.05-9.94-19-13.96-4.95-4.01-13.82-12.18-19.71-18.15-5.9-5.98-13.23-14.01-16.3-17.86-3.07-3.85-8.58-11.5-12.25-17-3.68-5.5-8.97-14.5-11.78-20-2.8-5.5-7.01-14.95-9.36-21-2.35-6.05-5.76-16.85-7.58-24-1.82-7.15-4.14-18.4-5.16-25-1.42-9.24-1.84-17.75-1.85-37-0.01-19.3 0.4-27.39 1.76-35.5 0.97-5.77 3.06-15.45 4.64-21.5 1.58-6.05 4.55-15.5 6.6-21 2.04-5.5 6.41-15.4 9.71-22 3.3-6.6 8.93-16.5 12.52-22 3.59-5.5 9.28-13.46 12.64-17.7 3.37-4.23 6.23-7.61 6.36-7.5 0.14 0.11-0.86 14.82-2.22 32.7-1.36 17.87-2.97 38.12-3.59 45-0.62 6.87-1.64 13.8-2.28 15.38-0.63 1.59-4.08 5.23-7.65 8.09-3.57 2.86-8.38 7.64-10.68 10.62-2.3 2.97-5.56 8.34-7.24 11.91-1.68 3.57-3.78 9.87-4.66 14-1.13 5.3-1.41 9.7-0.94 15 0.36 4.12 1.57 10.2 2.67 13.5 1.11 3.3 3.43 8.7 5.15 12 1.81 3.46 6.32 9.21 10.67 13.6 5.71 5.77 9.34 8.46 15.03 11.14 4.12 1.95 9.98 4.12 13 4.84 3.02 0.71 9.32 1.26 14 1.21 4.68-0.04 11.43-0.85 15-1.78 3.57-0.94 9.09-3.02 12.25-4.61 3.16-1.6 7.66-4.26 10-5.93 2.95-2.1 5.4-3.02 8-3 2.24 0.02 8.47 2.07 15.5 5.1 6.46 2.79 19.4 8.19 28.75 11.99 9.35 3.81 17.56 6.93 18.25 6.93 0.69 0.01 1.81-1.13 2.5-2.52 1.09-2.2 0.99-2.76-0.75-4.33-1.1-1-12.92-8.97-26.27-17.72-17.21-11.29-24.52-16.65-25.15-18.42-0.61-1.7-0.29-5.21 0.99-11 1.03-4.67 1.89-12.1 1.91-16.5 0.02-4.4-0.68-10.7-1.54-14-0.86-3.3-2.97-8.7-4.69-12-2.13-4.09-6.52-9.35-13.76-16.5-5.85-5.77-10.92-11.4-11.28-12.5-0.35-1.1-2.46-23.82-4.69-50.5-2.22-26.68-4.49-53-5.04-58.5-0.55-5.5-1-12.25-1.01-15-0.01-4.16 0.45-5.45 2.76-7.68 1.52-1.47 7.04-5.22 12.27-8.32 5.23-3.1 14.68-8.14 21-11.2 6.32-3.06 18.02-7.71 26-10.34 7.98-2.63 19-5.75 24.5-6.92 5.5-1.18 14.95-2.76 21-3.51 7.18-0.89 18.3-1.24 32-1.02zm-25.75 36.5c-0.96-0.01-3.44-1.38-5.5-3.06-2.48-2.01-5.31-3.23-8.35-3.61-3.53-0.44-7.17 0.21-15.69 2.79-9.05 2.75-10.87 3.62-9.9 4.7 0.65 0.74 4.12 2.92 7.69 4.85 3.57 1.93 10.1 5.89 14.5 8.78 4.4 2.9 11.6 8.83 16 13.18 4.4 4.35 10.45 11.5 13.45 15.88 3 4.39 6.9 11.13 8.66 14.98 1.76 3.85 4.84 11.73 6.84 17.5 2 5.77 4.52 14.89 5.59 20.25 1.08 5.36 1.96 13.8 1.96 18.75 0 4.95-0.7 12.26-1.55 16.25-0.85 3.99-2.7 9.95-4.1 13.25-1.41 3.3-2.78 7.12-3.06 8.5-0.34 1.72 1.14 5.77 4.75 13 2.88 5.77 7.47 14.1 10.2 18.5 2.73 4.4 7.27 11.15 10.1 15 2.83 3.85 8.52 10.83 12.63 15.5 4.11 4.67 8.05 9.62 8.75 11 0.7 1.37 1.27 3.51 1.27 4.75 0.01 1.24-1.04 3.49-2.32 5-1.29 1.51-6.35 4.86-11.25 7.43-4.91 2.57-10.32 6.17-12.03 8-1.7 1.83-3.39 4.11-3.75 5.07-0.39 1.06 0.54 3.92 2.36 7.25 1.65 3.02 3 6.85 3 8.5 0 1.96-0.95 3.92-2.75 5.66-2.34 2.26-3.27 2.55-6.25 1.93-1.92-0.39-5.42-1.03-7.76-1.4-3.12-0.5-4.26-0.35-4.25 0.56 0 0.69 0.35 1.25 0.76 1.24 0.41-0.01 3.34 2.47 6.5 5.5 3.16 3.03 6.02 6.52 6.35 7.76 0.32 1.24-0.09 3.6-0.92 5.25-0.83 1.65-4.06 5.92-7.18 9.5-3.12 3.58-6.31 7.74-7.09 9.25-0.77 1.51-1.46 4.66-1.53 7-0.07 2.34 0.19 8.08 0.57 12.75 0.61 7.58 0.46 8.85-1.38 11.75-1.56 2.45-3.37 3.63-7.32 4.78-3.95 1.15-9.59 1.49-22.75 1.36-9.63-0.09-25.15-0.82-34.5-1.62-15.39-1.32-17.4-1.31-21.25 0.13q-4.25 1.6-7.33 5.85c-1.7 2.34-3.74 5.83-4.53 7.75-0.8 1.92-1.21 4.06-0.92 4.75 0.29 0.69 5.14 3.48 10.78 6.21 5.64 2.73 14.98 6.51 20.75 8.41 5.77 1.89 15.45 4.39 21.5 5.53 6.05 1.15 11.11 1.87 11.25 1.6 0.14-0.28-2.68-3.65-6.25-7.5-3.57-3.85-6.5-7.67-6.5-8.5 0-1.11 1.17-1.5 4.5-1.5 2.48 0 5.96 0.6 7.75 1.33 1.79 0.74 6.4 4.16 10.25 7.61 3.85 3.46 8.35 7.13 10 8.17 1.65 1.03 3.34 1.88 3.75 1.89 0.41 0 0.73-3.71 0.71-8.25-0.04-6.56 0.3-8.56 1.66-9.75 0.98-0.86 3.63-1.5 6.23-1.5h4.53c0.55 13.95 1.11 18.45 1.6 19 0.57 0.63 5.19-3.22 12.59-10.5 6.43-6.33 15.3-15.77 19.7-21 4.4-5.23 10.81-13.55 14.24-18.5 3.44-4.95 9.07-13.95 12.53-20 3.46-6.05 6.61-12.13 7.01-13.5 0.4-1.38 0.33-3.29-0.16-4.25-0.51-0.99-2.51-1.99-4.64-2.32-2.06-0.31-8.7-1.46-14.75-2.56-6.05-1.1-12.01-2.65-13.25-3.44-1.24-0.78-2.27-2.22-2.28-3.18-0.02-0.96 0.99-3.04 2.25-4.62 2.13-2.69 2.61-2.83 7.28-2.22 2.75 0.36 10.4 1.73 17 3.04 8.34 1.66 12.69 2.11 14.25 1.47 1.24-0.51 3.12-2.83 4.17-5.17 1.06-2.34 3.5-9.65 5.41-16.25 1.91-6.6 4.61-17.4 6-24 1.38-6.6 3.01-16.27 3.6-21.5 0.6-5.23 1.2-12.75 1.33-16.72 0.19-5.81-0.11-7.56-1.55-9-1.61-1.6-4.05-1.78-24.54-1.78-19.98 0-23.09-0.21-25.46-1.75-1.49-0.96-3.61-3.21-4.71-5-1.09-1.79-1.99-3.59-2-4 0-0.41 12.26-0.74 27.25-0.72 26.56 0.03 27.3-0.02 29.25-2.1 1.7-1.81 1.96-3.29 1.74-9.78-0.15-4.21-1.16-13.72-2.25-21.15-1.09-7.43-3.13-18.23-4.53-24-1.4-5.77-4.1-15.56-6-21.75-1.99-6.45-4.48-12.42-5.85-14l-2.4-2.75c-17.6 3.47-28.45 5.38-35.46 6.49-10.29 1.62-13.05 1.77-14.33 0.76-1.12-0.89-1.48-2.55-1.25-5.72 0.3-4.02 0.63-4.54 3.33-5.21 1.65-0.42 10.87-1.92 20.5-3.35 9.62-1.43 18.51-3.25 19.75-4.04 1.24-0.78 2.25-2.33 2.25-3.43 0-1.1-1.64-5.26-3.64-9.25-2.01-3.99-6.15-11.3-9.22-16.25-3.07-4.95-8.79-13.27-12.73-18.5-3.93-5.23-11.19-14-16.12-19.5-4.94-5.5-11.97-12.59-15.63-15.75-4.72-4.07-7.24-5.6-8.66-5.25-1.9 0.48-2 1.33-2 18 0 9.62-0.34 17.52-0.75 17.54-0.41 0.02-2.66-2-5-4.5-2.39-2.56-4.66-6.18-5.19-8.29-0.52-2.06-1.25-8.48-1.62-14.25-0.38-5.77-0.78-10.58-0.89-10.68-0.12-0.09-2.88 2.05-6.13 4.76-3.26 2.71-6.71 4.93-7.67 4.93zm64.39 6.99c5.61 6.87 12.53 15.65 15.39 19.5 2.85 3.85 7.82 11.05 11.05 16 3.22 4.95 8.57 14.18 11.89 20.5 5.46 10.41 6.32 11.53 9.03 11.84 1.65 0.18 7.05-1.03 12-2.7 4.95-1.67 15.98-6.22 24.5-10.12 8.52-3.9 16.1-7.64 16.84-8.31 1.02-0.92 1.08-1.75 0.25-3.46-0.6-1.24-5.25-5.88-10.34-10.33-5.09-4.44-13.52-10.94-18.75-14.43-5.23-3.5-15.58-9.51-23-13.36-7.42-3.84-17.1-8.41-21.5-10.14-4.4-1.74-11.83-4.06-16.5-5.16-4.67-1.1-11.4-2.33-14.95-2.73-3.55-0.41-6.38-0.49-6.28-0.17 0.09 0.31 4.76 6.19 10.37 13.07zm89.86 66.14c-6.33 2.88-17.13 7.13-24 9.45-7.7 2.59-12.94 4.92-13.64 6.06-0.92 1.5-0.21 4.66 3.75 16.6 2.69 8.11 6.22 21.39 7.84 29.5 1.63 8.11 3.85 22.4 4.94 31.75 1.78 15.37 2.2 17.17 4.29 18.79 2.14 1.66 5.36 1.79 42.5 1.75 34.31-0.03 40.41-0.26 41.75-1.54 0.86-0.82 1.84-2.51 2.16-3.75 0.33-1.24 0.09-6.3-0.54-11.25-0.62-4.95-2.27-14.18-3.66-20.5-1.4-6.32-4.09-16.23-5.99-22-1.89-5.77-6.31-16.35-9.8-23.5-3.5-7.15-9.5-17.73-13.34-23.5-3.84-5.77-8.4-11.96-10.12-13.75-1.77-1.83-4.12-3.23-5.39-3.21-1.24 0.02-3.83 0.9-5.75 1.95-1.92 1.05-8.67 4.27-15 7.15zm-18.73 129.57c-0.67 1.53-1.92 9.77-2.78 18.29-0.86 8.52-2.93 22.25-4.6 30.5-1.67 8.25-5.26 21.75-7.98 30-3.98 12.11-4.69 15.25-3.67 16.3 0.69 0.71 3.51 2.01 6.26 2.89 2.75 0.87 9.39 3.32 14.75 5.45 5.36 2.12 15.49 6.57 22.5 9.88 7.01 3.31 13.99 6.01 15.5 6 2.26-0.02 3.78-1.41 8.52-7.77 3.17-4.26 8.07-11.58 10.88-16.25 2.82-4.67 6.59-11.42 8.37-15 1.79-3.58 5.17-11.45 7.51-17.5 2.34-6.05 5.7-16.85 7.46-24 1.76-7.15 3.97-18.4 4.92-25 0.94-6.6 1.46-12.85 1.15-13.88-0.31-1.03-1.46-2.34-2.56-2.91-1.26-0.64-16.56-1.06-41.25-1.12-21.59-0.05-40.26 0.23-41.5 0.62-1.24 0.39-2.8 1.96-3.48 3.5zm-34.37 123.29c-2.95 5.77-8.52 15.23-12.38 21.01-3.86 5.78-9.94 14.09-13.52 18.47-3.58 4.38-10.42 12.48-15.22 17.99-4.8 5.52-8.62 10.17-8.5 10.35 0.12 0.17 4.95-0.66 10.72-1.85 5.77-1.19 15.67-3.85 22-5.92 6.33-2.06 17.35-6.55 24.5-9.97 7.15-3.42 17.27-9.03 22.5-12.48 5.23-3.44 12.88-9 17-12.35 4.13-3.35 10.2-8.77 13.5-12.05l6-5.96c-8.52-4.67-14.15-7.39-18-9.06-3.85-1.68-12.96-5.32-20.25-8.11-7.29-2.79-14.52-5.07-16.08-5.07-1.67 0-3.67 0.93-4.87 2.25-1.13 1.24-4.46 6.98-7.4 12.75z"/>
	</g>
</svg>