<svg version="1.2" xmlns="http://www.w3.org/2000/svg" viewBox="0 0 722 991" width="722" height="991">
	<style>
		.s0 { opacity: .98;fill: #3086b6 } 
	</style>
	<g id="폴더 1">
		<g id="레이어 1">
			<path id="Path 0" class="s0" d="m114.33 730.35c-1.55 1.29-5.8 6.81-9.44 12.25-3.63 5.45-11.78 18.23-18.1 28.4-6.33 10.17-15.89 25.7-21.25 34.5-8.01 13.16-9.63 16.49-9.14 18.75 0.33 1.51 1.44 3.54 2.48 4.5 1.03 0.96 2.13 2.65 2.45 3.75 0.32 1.1 1.52 2.9 2.66 4l2.08 2c2.89-3.1 8.63-11.42 14.63-20.5 6-9.08 13.4-20.55 16.46-25.5 3.06-4.95 10.28-16.65 16.04-26 5.76-9.35 12.42-20.38 14.78-24.5 2.37-4.13 4.47-7.84 4.66-8.25 0.2-0.41-2.79-1.88-6.64-3.25-3.85-1.38-7.41-2.5-7.92-2.5-0.5 0-2.19 1.06-3.75 2.35z"/>
			<path id="Path 1" class="s0" d="m4.97 706.75c-0.03 3.19 0.59 5.57 1.88 7.25 1.08 1.41 2.4 5.66 3.03 9.75 0.62 3.99 1.74 8.26 2.51 9.5 0.76 1.24 1.96 4.73 2.66 7.75 0.71 3.02 1.88 6.06 2.62 6.75 0.73 0.69 1.61 2.94 1.96 5 0.34 2.06 1.73 6.23 3.09 9.25 1.35 3.02 3.94 8.65 5.75 12.5 1.81 3.85 4.92 10.49 6.91 14.75 1.99 4.26 3.96 7.74 4.37 7.73 0.41-0.02 1.31 1.78 2 4 0.69 2.21 1.93 4.25 2.75 4.52 0.82 0.27 1.72 1.74 1.98 3.25 0.27 1.51 1.62 3.99 3 5.5l2.52 2.75c36.23-60.84 48.04-80.81 49.62-83.63 2.21-3.93 2.62-5.44 1.75-6.5-0.62-0.75-3.32-2.18-6-3.18-2.68-0.99-8.02-2.96-11.87-4.38-3.85-1.41-14.54-5.88-23.75-9.94l-16.75-7.37h-40z"/>
			<path id="Path 2" class="s0" d="m300.84 429.82c-2.39 2.65-7.31 9.29-10.95 14.75-3.63 5.46-11.46 17.58-17.39 26.93-5.93 9.35-15.61 24.88-21.49 34.5-5.89 9.63-15.56 25.15-21.49 34.5-5.93 9.35-11.73 18.87-12.9 21.16-2.04 4.01-2.05 4.27-0.37 6.75 0.96 1.43 4.34 3.94 7.5 5.58 3.16 1.65 5.79 2.88 5.85 2.75 0.05-0.13 2.34-3.61 5.09-7.74 2.74-4.12 13.97-21.9 24.95-39.5 10.98-17.6 28.83-46.51 39.66-64.25 10.84-17.74 19.59-33 19.45-33.92-0.14-0.92-2.27-2.71-4.75-3.97-2.47-1.27-5.47-2.32-6.66-2.33-1.34-0.02-3.82 1.8-6.5 4.79z"/>
			<path id="Path 3" class="s0" d="m294.29 272.7c-1.22 0.24-3.16 1.64-4.31 3.12-1.15 1.47-2.98 5.61-4.07 9.18-1.08 3.58-2.4 10.32-2.92 15-0.62 5.5-0.6 12.56 0.05 20 0.55 6.33 1.72 14.43 2.61 18 0.88 3.58 2.82 9.2 4.32 12.5 1.49 3.3 5.05 9.6 7.9 14 2.86 4.4 5.18 8.34 5.16 8.75-0.02 0.41-0.77 2.21-1.67 4-0.91 1.79-4.73 8.09-8.5 14-5.73 8.97-6.57 10.82-5.11 11.18 0.96 0.24 4.45 0.96 7.75 1.6 3.3 0.64 8.48 1.81 11.5 2.6 3.02 0.78 9.32 3.5 14 6.04 4.67 2.55 10.75 6.18 13.5 8.08 2.75 1.9 5.67 3.23 6.5 2.96 0.83-0.26 3.08-3.11 5-6.32 2.91-4.84 3.49-6.76 3.45-11.36-0.04-3.78-0.83-7.08-2.5-10.44-1.62-3.25-4.44-6.45-8.36-9.5-3.25-2.52-6.17-5.23-6.5-6.01-0.47-1.14 0.09-1.27 2.91-0.68 1.92 0.41 8.67 2.04 15 3.62 6.33 1.59 15.55 3.59 20.5 4.44 4.95 0.86 13.27 1.55 18.5 1.54 5.23-0.01 11.98-0.69 15-1.51 3.02-0.82 7.94-2.95 10.92-4.74 2.99-1.79 8.86-6.62 13.06-10.75 4.19-4.12 8.61-9.52 9.82-12 1.2-2.48 2.48-6.75 2.83-9.5 0.45-3.57 0.19-5.86-0.9-8-0.84-1.65-4.62-5.95-8.38-9.55-3.77-3.61-10.68-9.45-15.35-12.98-4.67-3.53-13.23-9.41-19-13.08-5.77-3.66-16.58-9.82-24-13.68-7.42-3.86-18.67-9.07-25-11.58-6.33-2.51-14.88-5.24-19-6.07-4.13-0.84-12.23-1.98-18-2.55-5.77-0.56-11.4-0.96-12.5-0.88-1.1 0.08-3 0.34-4.21 0.57z"/>
			<path id="Path 4" class="s0" d="m296.13 255.56c-2.93 3.21-5.28 6.42-5.23 7.14 0.06 0.71 1.34 1.51 2.85 1.78 1.51 0.26 9.5 1.4 17.75 2.53 8.25 1.14 17.7 2.74 21 3.57 3.3 0.84 8.92 2.45 12.5 3.59 3.58 1.13 14.6 6.04 24.5 10.9 9.9 4.86 23.05 11.9 29.23 15.64 6.17 3.73 16.95 11.06 23.95 16.29 6.99 5.23 14.32 10.51 16.27 11.74 1.95 1.24 4.34 2.25 5.3 2.25 0.96 0.01 2.65-1.45 3.75-3.24 1.09-1.79 2.01-4.6 2.02-6.25 0.02-1.75-1.16-4.67-2.83-7-1.58-2.2-7.45-7.38-13.05-11.5-5.6-4.13-16.8-11.68-24.91-16.78-8.1-5.1-22.38-13.04-31.73-17.64-9.35-4.6-20.71-9.76-25.25-11.47-4.54-1.71-12.19-3.81-17-4.66-4.81-0.86-14.39-1.82-21.27-2.14l-12.53-0.59z"/>
			<path id="Path 5" fill-rule="evenodd" class="s0" d="m363.36-0.03c0.62-0.02 1.92 0.77 2.87 1.75 0.95 0.98 2.24 3.58 2.87 5.78 0.63 2.2 1.99 5.13 3.04 6.5 1.05 1.37 2.18 3.85 2.51 5.5 0.34 1.65 1.47 4.13 2.51 5.5 1.05 1.37 1.89 2.95 1.86 3.5-0.02 0.55 1.04 3.25 2.37 6 1.32 2.75 4.25 9.16 6.51 14.25 2.25 5.09 4.08 9.59 4.06 10-0.03 0.41 0.66 1.42 1.52 2.25 0.87 0.83 1.79 2.62 2.05 4 0.26 1.37 2.04 5.65 3.97 9.5 1.92 3.85 3.5 7.56 3.5 8.25 0 0.69 0.45 1.25 1 1.25 0.55 0 1.5 1.69 2.11 3.75 0.61 2.06 1.67 4.2 2.34 4.75 0.68 0.55 1.74 2.57 2.36 4.5 0.61 1.93 2.05 4.63 3.18 6 1.14 1.37 2.05 3.18 2.03 4-0.02 0.82 0.75 2.62 1.7 4 0.96 1.37 3.95 6.78 6.65 12 2.69 5.22 6.86 12.76 9.26 16.75 2.41 3.99 4.35 7.59 4.33 8-0.03 0.41 0.69 1.43 1.59 2.25 0.9 0.82 2.51 3.3 3.58 5.5 1.07 2.2 3.26 6.25 4.87 9 1.61 2.75 3.85 6.8 5 9 1.14 2.2 3.61 6.03 5.48 8.5 1.87 2.47 4.26 6.07 5.32 8 1.05 1.93 4.56 7.47 7.81 12.32 3.24 4.86 6.9 10.48 8.14 12.5 1.23 2.03 2.61 3.91 3.05 4.18 0.45 0.27 1.34 1.85 1.98 3.5 0.64 1.65 2.1 3.9 3.23 5 1.13 1.1 2.05 2.45 2.03 3-0.01 0.55 0.89 1.9 1.99 3 1.11 1.1 3.93 4.93 6.28 8.5 2.35 3.57 6.95 10.25 10.23 14.83 3.28 4.58 6.63 9.32 7.46 10.54 0.83 1.21 2.72 3.77 4.22 5.67 1.5 1.9 2.74 3.8 2.75 4.21 0.02 0.41 1.04 1.79 2.28 3.07 1.24 1.28 3.15 3.62 4.25 5.2 1.1 1.59 3.22 4.26 4.71 5.93 1.49 1.68 2.73 3.39 2.75 3.8 0.02 0.41 3.53 5.14 7.79 10.5 4.26 5.36 9.07 11.54 10.68 13.75 1.61 2.2 5.56 7.15 8.78 11 3.22 3.85 6.5 7.68 7.29 8.5 0.79 0.82 1.46 1.84 1.47 2.25 0.02 0.41 3.05 4.46 6.75 9 3.7 4.54 8.08 9.76 9.75 11.6 1.67 1.84 3.7 4.26 4.53 5.37 0.83 1.11 3.94 5.01 6.92 8.65 2.98 3.65 7.62 9.11 10.32 12.13 2.7 3.02 5.77 6.4 6.82 7.5 1.06 1.1 1.92 2.34 1.93 2.75 0 0.41 2.26 3.68 5.01 7.25 2.75 3.57 5 6.73 5 7 0 0.27 0.46 1.06 1.01 1.75 0.56 0.69 2.37 3.05 4.04 5.25 1.66 2.2 4.24 5.5 5.74 7.33 1.49 1.82 3.44 4.07 4.32 5 0.89 0.92 2.2 2.79 2.9 4.17 0.71 1.38 0.88 2.6 0.39 2.73-0.5 0.13-3.71 1.93-7.14 4-3.43 2.07-9.04 5.79-12.46 8.27-3.43 2.48-10.74 9.01-16.26 14.52-5.52 5.51-12.35 13.39-15.16 17.5-2.82 4.11-7.19 11.31-9.71 15.98-2.51 4.67-6.37 13.9-8.55 20.5-2.19 6.6-4.92 17.63-6.06 24.5-1.14 6.88-2.08 15.76-2.07 19.75 0.01 4.42 0.59 8.42 1.51 10.25 0.83 1.65 2.51 3.53 3.75 4.18 1.35 0.7 8.66 1.33 18.25 1.56 8.8 0.21 29.82 0.01 46.71-0.43 25.13-0.66 31.01-1.08 32.31-2.31 1.03-0.97 1.91-4.49 2.49-10 0.5-4.67 1.62-10.52 2.5-13 0.87-2.48 2.65-6.3 3.95-8.5 1.3-2.2 3.87-5.43 5.7-7.17 1.84-1.74 5.59-4.34 8.34-5.77 2.75-1.43 5.56-2.6 6.25-2.58 0.69 0.01 1.25 0.92 1.25 2.02 0 1.1 0.45 2 1 2 0.55 0 1 0.79 1 1.75-0.01 0.96 0.82 3.33 1.84 5.25 1.01 1.92 2.4 6.42 3.08 10 0.68 3.58 1.88 7.51 2.66 8.75 0.78 1.24 1.87 6.3 2.42 11.25 0.55 4.95 1.23 9.67 1.5 10.5 0.27 0.83 0.95 1.5 1.5 1.5 0.55 0 1.29 3.71 1.64 8.25 0.36 4.54 0.6 15.23 0.53 23.75-0.06 8.52-0.24 15.55-0.39 15.62-0.15 0.06-58.55 0.39-129.78 0.72-71.23 0.34-130.51 0.96-131.73 1.39-1.23 0.42-2.47 1.67-2.74 2.77-0.28 1.1-0.51 18.99-0.53 77.5l104.75 0.64c57.61 0.35 115.21 0.35 151.25-0.64l-0.47 3.75c-0.26 2.06-0.77 6-1.13 8.75-0.35 2.75-1.27 5.67-2.04 6.5-0.76 0.83-1.72 3.42-2.12 5.77-0.41 2.34-1.08 4.25-1.49 4.25-0.41-0.01-0.75 0.88-0.75 1.98 0 1.1-0.73 3.69-1.62 5.75-0.89 2.06-2.02 4.54-2.5 5.5-0.48 0.96-0.88 2.54-0.89 3.5 0 0.96-1.11 3.55-2.46 5.75-1.36 2.2-2.48 4.79-2.5 5.75-0.02 0.96-1.16 3.44-2.53 5.5-1.38 2.06-2.51 4.76-2.5 6 0 1.24-0.82 3.04-1.83 4-1 0.96-2.13 3.21-2.5 5-0.37 1.79-1.51 4.04-2.54 5-1.02 0.96-2.37 3.44-3 5.5-0.62 2.06-1.58 3.75-2.13 3.75-0.55 0-1.91 1.91-3.01 4.25-1.11 2.34-2.8 5.59-3.75 7.23-0.96 1.64-2.25 3.44-2.87 4-0.61 0.56-1.59 1.92-2.16 3.02-0.74 1.42-1.14-12.21-1.37-46.67-0.19-26.76-0.71-49.04-1.17-49.5-0.46-0.46-17.94-0.83-38.83-0.83-36.86 0-38.04 0.06-39.44 2-1.22 1.7-1.43 15.51-1.4 184.5l-2.25 1.93c-1.24 1.06-3.83 3.29-5.75 4.96-1.92 1.66-3.95 3.04-4.5 3.06-0.55 0.03-1.56 0.94-2.25 2.05-0.69 1.1-1.92 2-2.75 2-0.83 0-2.74 1.05-4.25 2.33-1.51 1.28-3.42 2.64-4.25 3.01-0.83 0.38-2.67 1.46-4.11 2.42-1.43 0.96-5.03 3.34-8 5.29-2.96 1.95-6.97 4.18-8.89 4.95-1.92 0.77-3.95 1.94-4.5 2.58-0.55 0.65-2.13 1.43-3.5 1.74-1.38 0.31-3.63 1.5-5 2.64-1.38 1.14-3.85 2.37-5.5 2.73-1.65 0.36-3.67 1.39-4.5 2.29-0.83 0.9-3.3 2-5.5 2.43-2.2 0.43-5.13 1.58-6.5 2.55-1.38 0.97-4.19 2.05-6.25 2.4-2.06 0.35-4.65 1.54-5.75 2.64-1.1 1.1-2.9 2-4 2-1.1 0-4.36 0.74-7.25 1.65-2.89 0.91-5.7 1.96-6.25 2.33-0.55 0.38-3.7 1.26-7 1.96-3.3 0.7-7.35 1.71-9 2.25-1.65 0.53-5.36 1.61-8.25 2.39-2.89 0.78-6.49 1.41-8 1.4-1.51-0.01-4.21 0.44-6 1-1.79 0.56-3.25 1.47-3.25 2.02 0 0.55-2.81 1.24-6.25 1.54-3.44 0.29-10.3 1.03-15.25 1.64-4.95 0.61-9.63 1.6-10.4 2.21-0.97 0.77-12.95 1.11-38.79 1.11-26.65 0-37.59-0.32-38.1-1.13-0.39-0.62-2.51-1.41-4.71-1.75-2.2-0.34-8.5-1.01-14-1.49-6.41-0.55-10.9-1.45-12.5-2.52-1.38-0.91-5.2-2.05-8.5-2.53-3.3-0.47-9.83-1.83-14.5-3.01-4.68-1.18-9.85-2.58-11.5-3.1-1.65-0.52-3.79-0.95-4.75-0.96-0.96 0-2.76-0.62-4-1.38-1.24-0.75-4.5-1.92-7.25-2.61-2.75-0.69-6.24-1.77-7.75-2.39-1.52-0.62-2.75-1.47-2.75-1.88 0-0.41-1.91-0.97-4.25-1.23-2.39-0.28-5.12-1.36-6.25-2.49-1.1-1.11-3.58-2.28-5.5-2.62-1.93-0.33-4.63-1.4-6-2.36-1.38-0.97-3.63-2.02-5-2.35-1.38-0.32-3.63-1.52-5-2.66-1.38-1.14-3.63-2.28-5-2.54-1.38-0.26-3.4-1.39-4.5-2.52-1.1-1.12-2.68-2.02-3.5-1.99-0.83 0.03-3.75-1.41-6.5-3.2-2.75-1.78-5.11-3.59-5.25-4.02-0.14-0.42-0.59-0.75-1-0.73-0.41 0.02-3.63-1.89-7.14-4.25-3.52-2.36-6.55-4.63-6.75-5.04-0.2-0.41-1.15-0.74-2.11-0.73-0.96 0.02-2.7-1-3.86-2.25-1.16-1.25-3.52-3.51-5.25-5.02-1.73-1.51-3.59-2.75-4.14-2.75-0.55 0-2.01-0.89-3.25-1.97-1.24-1.09-5.18-4.36-8.75-7.27-3.58-2.91-8.57-7.31-11.11-9.78-2.53-2.46-7.14-6.73-10.24-9.48-3.1-2.75-5.64-5.56-5.64-6.25-0.01-0.69-0.91-1.48-2.01-1.75-1.1-0.27-2.31-1.29-2.69-2.25-0.37-0.96-2.85-3.89-5.5-6.5-2.64-2.61-4.81-5.2-4.81-5.75 0-0.55-0.68-1-1.5-1-0.83 0-1.48-0.34-1.46-0.75 0.02-0.41-1.99-3.23-4.47-6.25-2.48-3.02-4.54-6.17-4.57-7-0.04-0.83 0.89-2.4 2.06-3.5 1.17-1.1 5.61-7.17 9.88-13.5 4.26-6.33 18.54-28.83 31.72-50 13.18-21.17 24.95-40.19 26.15-42.25 1.65-2.83 3.11-3.97 5.94-4.62 2.06-0.48 10.72-2.57 19.25-4.64 8.52-2.06 17.75-4.58 20.5-5.58 2.75-1 6.91-3.19 9.25-4.87 3.71-2.65 4.53-3.96 6.42-10.29 1.37-4.55 3.16-8.18 4.82-9.75 1.46-1.37 5.2-4.41 8.33-6.75 4.84-3.62 6.25-5.48 9.53-12.5 3.1-6.63 5.01-9.24 9.75-13.33 4.16-3.58 7.06-7.26 9.85-12.5 2.17-4.08 6.78-11.13 10.25-15.67 3.46-4.54 7.2-9.94 8.3-12 1.1-2.06 2.29-5.33 2.66-7.25 0.51-2.73 0.02-4.81-2.25-9.47-2.25-4.61-5.47-8.36-14.15-16.5-6.19-5.79-11.26-10.76-11.28-11.03-0.02-0.27 18.42-29.98 82.02-131.5l13.25-1.66c7.29-0.91 14.37-2.08 15.75-2.59 1.37-0.52 4.14-2.93 6.13-5.35 2-2.42 5.54-7.55 7.87-11.4 2.33-3.85 4.3-7.1 4.37-7.21 0.07-0.12 9.13-0.66 20.13-1.19 11-0.54 23.6-1.69 28-2.56 4.71-0.94 11.29-3.23 16-5.59 4.4-2.2 12.24-7.03 17.43-10.73 5.19-3.69 13.82-10.99 19.19-16.22 6.98-6.79 10.49-11.07 12.31-15 1.4-3.02 2.56-7.07 2.58-9 0.01-1.93-0.82-5.98-1.85-9-1.03-3.02-2.9-7.52-4.17-10-1.26-2.48-4.1-6.98-6.31-10-2.21-3.02-9.91-11.37-17.1-18.55-7.19-7.17-16.91-15.98-21.58-19.58-4.67-3.59-12.55-9.24-17.5-12.56-4.95-3.31-13.5-8.61-19-11.78-5.5-3.17-13.38-7.46-17.5-9.54-4.13-2.07-12.45-5.87-18.5-8.45-6.05-2.58-16.63-6.29-23.5-8.24-11.39-3.25-13.71-3.57-39.82-3.8l-4.34 3.05c-2.39 1.68-6.01 5.28-8.06 8-2.53 3.36-4.4 7.51-5.86 12.95-1.17 4.4-2.77 11.15-3.54 15-0.77 3.85-1.68 15.32-2.03 25.5-0.42 12.4-0.24 20.81 0.55 25.5 0.65 3.85 2.64 10.37 4.42 14.5 1.79 4.12 5.6 11.44 13.68 25l-16.77 32.5 5.38 11c2.96 6.05 5.38 11.56 5.38 12.25 0.01 0.69-4.12 8.11-9.16 16.5-5.04 8.39-17.13 28.3-26.87 44.25-9.73 15.95-20.37 33.27-23.64 38.5-3.27 5.23-8.17 12.8-10.89 16.82-4.4 6.55-5.2 7.26-7.43 6.7-1.38-0.35-8.35-3.93-15.5-7.96-7.15-4.03-15.36-8.51-18.25-9.95-2.89-1.43-8.63-3.74-12.75-5.11-4.13-1.38-9.52-2.5-12-2.5-3.01 0-7.72 1.35-14.25 4.1-5.36 2.25-21.23 9.98-35.25 17.17-14.02 7.2-31.13 16.23-38 20.08-6.88 3.84-15.65 8.71-19.5 10.81-3.85 2.1-9.25 4.52-12 5.36-2.75 0.85-10.85 2.2-18 3-7.15 0.8-13.79 1.47-14.75 1.47-1.39 0.01-1.62-0.55-1.13-2.74 0.34-1.51 1.19-3.65 1.88-4.75 0.7-1.1 1.83-6.5 2.51-12 0.68-5.5 1.75-10.47 2.36-11.05 0.62-0.58 1.69-4.29 2.38-8.25 0.69-3.96 1.87-8.21 2.64-9.45 0.76-1.24 1.94-4.73 2.62-7.75 0.69-3.02 1.8-6.17 2.48-7 0.68-0.83 1.57-2.85 1.96-4.5 0.4-1.65 1.5-4.58 2.45-6.5 0.94-1.92 3.23-6.2 5.07-9.5 1.84-3.3 3.8-6.9 4.34-8 0.55-1.1 1.38-2.67 1.84-3.5 0.46-0.83 1.92-3.52 3.23-6 1.31-2.48 3.23-6.08 4.25-8.01 1.03-1.92 2.9-4.85 4.15-6.5 1.26-1.64 2.27-3.55 2.25-4.24-0.01-0.69 0.76-2.01 1.72-2.95 0.96-0.93 2.51-3.07 3.45-4.75 0.93-1.68 2.51-4.62 3.5-6.55 0.99-1.93 3.8-6.2 6.24-9.5 2.44-3.3 7.6-10.27 11.46-15.5 3.87-5.23 7.61-9.84 8.31-10.25 0.71-0.41 1.29-1.43 1.29-2.25 0-0.82 2.15-4.09 4.77-7.25 2.62-3.16 5.62-7.1 6.66-8.75 1.03-1.65 5.75-7.85 10.48-13.78 4.72-5.93 8.93-10.76 9.34-10.75 0.41 0.02 0.75-0.42 0.75-0.97 0-0.55 4.61-6.58 10.25-13.4 5.64-6.82 13.27-16.16 16.97-20.75 3.7-4.59 7.52-9.4 8.5-10.69 0.98-1.28 4.13-5.33 7-9 2.87-3.66 5.89-7.56 6.72-8.66 0.82-1.1 2.97-3.91 4.78-6.24 1.8-2.34 4.4-5.68 5.78-7.43 1.37-1.75 6.42-8.4 11.21-14.76 4.78-6.36 9.73-13.05 11-14.87 1.26-1.81 4.44-6.08 7.08-9.5 2.63-3.41 4.77-6.54 4.75-6.95-0.02-0.41 0.84-1.76 1.92-3 1.08-1.24 3.04-3.6 4.36-5.25 1.31-1.65 2.99-4.13 3.72-5.5 0.74-1.38 3.55-5.43 6.26-9 2.7-3.57 5.31-7.4 5.81-8.5 0.49-1.1 2.46-4.02 4.38-6.5 1.91-2.48 4.39-6.07 5.51-8 1.12-1.93 3.59-5.53 5.5-8 1.9-2.47 4.21-5.85 5.12-7.5 0.91-1.65 6.09-9.64 11.52-17.75 5.42-8.11 9.87-15.09 9.89-15.5 0.01-0.41 1.7-3.15 3.75-6.08 2.05-2.93 4.94-7.43 6.43-10 1.48-2.57 3.4-6.13 4.25-7.92 0.85-1.79 2.44-4.15 3.54-5.25 1.1-1.1 2-2.45 2-3 0-0.55 1.05-2.46 2.34-4.25 1.29-1.79 2.97-4.73 3.75-6.54 0.78-1.81 1.63-3.25 1.91-3.21 0.27 0.04 1.51-2.19 2.75-4.96 1.24-2.77 2.59-5.2 3-5.4 0.41-0.19 3.56-5.37 7-11.5 3.44-6.13 6.24-11.48 6.22-11.89-0.02-0.41 0.77-1.49 1.75-2.4 0.98-0.9 2.34-3.49 3.03-5.75 0.69-2.25 1.7-4.1 2.25-4.1 0.55 0 1.71-1.69 2.59-3.75 0.87-2.06 3.01-6.32 4.75-9.45 1.74-3.14 7.55-14.28 12.91-24.75 5.36-10.48 9.67-19.53 9.57-20.12-0.1-0.58 1.07-2.61 2.61-4.5 1.53-1.89 3.3-3.44 3.93-3.46zm219.64 593.03l0.5 24.48c4.65 1 22.76 1.34 43.25 1.4l37.25 0.12 0.01-25.5c-26.75-1.16-43.51-1.42-54.51-1.34-11 0.09-21.46 0.31-23.25 0.5zm-197.5 30.37c-3.85 0.92-11.05 3.01-16 4.63-4.95 1.63-13.17 5.11-18.27 7.73-5.1 2.62-13.2 7.55-18 10.95-4.8 3.39-13.25 10.82-18.77 16.5-5.52 5.67-12.55 14.15-15.62 18.82-3.06 4.68-7.27 11.88-9.34 16-2.07 4.13-5.54 12.9-7.7 19.5-2.17 6.6-4.58 16.28-5.37 21.5-0.78 5.23-1.52 13.78-1.63 19-0.16 7.31 0.19 10.25 1.5 12.75l1.7 3.25c15.89 0.89 37.97 1 59.33 0.82 37.5-0.31 38.88-0.39 40.25-2.32 0.79-1.1 1.65-4.02 1.93-6.5 0.27-2.47 0.99-7.2 1.59-10.5 0.61-3.3 2.12-8.02 3.37-10.5 1.26-2.47 3.57-6.02 5.15-7.88 1.59-1.85 5.8-4.98 9.38-6.94 6.32-3.46 6.91-3.58 21.5-4.41 8.25-0.47 16.01-1.06 17.25-1.31 1.47-0.3 2.6-1.58 3.27-3.71 0.62-2.01 1.01-20.75 1-49l-0.02-45.75-4.83-5.5c-22.99-0.23-33.05 0.04-37.17 0.45-4.13 0.41-10.65 1.5-14.5 2.42zm95.16 143.39c-1.56 1.51-3.47 3.98-4.25 5.49-0.78 1.51-1.41 4.78-1.41 7.25 0 2.48 0.63 5.74 1.4 7.25 0.77 1.51 2.84 4.55 4.6 6.75 2.93 3.66 3.15 4.43 2.6 9-0.34 2.75-1.49 6.8-2.56 9-1.07 2.2-3.55 5.91-5.5 8.25l-3.54 4.25c0 44 0.37 54.19 1 54.5 0.55 0.28 2.5 2.86 4.34 5.75 1.84 2.89 4.1 7.5 5.01 10.25 0.92 2.75 1.67 6.24 1.66 7.75 0 1.51-1.3 4.44-2.87 6.5-1.58 2.06-3.66 5.33-4.63 7.25-1.29 2.56-1.61 4.85-1.21 8.5 0.3 2.75 1.39 6.13 2.43 7.5 1.04 1.38 3.89 3.52 6.33 4.76 2.44 1.24 6.24 2.25 8.44 2.24 2.23 0 5.44-0.89 7.25-2 1.79-1.1 4.39-3.69 5.77-5.75 1.39-2.06 2.8-5.55 3.13-7.75 0.39-2.64 0.08-5.02-0.91-7-0.83-1.65-3.14-4.91-5.13-7.25-1.98-2.34-3.61-5.26-3.6-6.5 0.01-1.24 0.62-4.27 1.37-6.75 0.74-2.47 2.26-6.3 3.38-8.5 1.11-2.2 2.99-4.9 4.17-6 2.09-1.95 2.13-2.66 2.1-30.25l-0.03-28.25c-6.44-9.3-8.58-13.99-9.58-18-1.47-5.95-1.48-6.75-0.02-9.5 0.87-1.65 3.18-5.25 5.13-8 2.25-3.17 3.53-6.1 3.49-8-0.04-1.65-0.95-4.91-2.04-7.25-1.13-2.43-3.58-5.33-5.73-6.77-2.06-1.39-5.55-2.72-7.75-2.97-2.2-0.24-5.35 0-7 0.53-1.65 0.54-4.28 2.21-5.84 3.72zm-193.66 103.24v79c22.86 0.99 40.52 1.01 54 0.69 15.75-0.39 24.86-0.99 25.5-1.69 0.64-0.71 1.09-28.17 1.25-77.05 0.14-41.77-0.12-77.41-0.56-79.2l-0.82-3.25c-73.2-0.49-78.25-0.33-78.77 0.99-0.33 0.83-0.6 37.06-0.6 80.51zm267.63-69.41c-0.48 1.05-1.15 8.51-1.5 16.57-0.35 8.07-0.86 14.95-1.13 15.29-0.27 0.35-6.44 0.95-13.7 1.34l-13.2 0.71c-1.06 10.08-1.15 16.15-0.88 20 0.27 3.85 0.78 7.56 1.13 8.25 0.47 0.91 4.36 1.25 14.15 1.25h13.5c0.47 30.19 0.7 32.02 2.5 34 1.1 1.22 3.24 2.84 4.75 3.6 1.51 0.77 4.1 1.4 5.75 1.4h3v-106c-7.36 0.1-10.4 0.48-11.5 0.91-1.1 0.43-2.39 1.64-2.87 2.68z"/>
			<path id="Path 6" class="s0" d="m145.48 530.78c-2.76 0.95-9.51 4.41-15 7.7-5.49 3.29-25.28 13.66-43.98 23.05-18.7 9.4-39.18 19.24-45.5 21.88-6.32 2.63-13.97 5.42-17 6.19-3.02 0.77-9.55 1.99-14.5 2.7-8.76 1.27-9.02 1.39-9.63 4.25-0.35 1.62-0.69 16.68-0.76 33.45-0.08 16.78 0.21 31.97 0.63 33.77 0.73 3.17 0.93 3.28 5.76 3.25 2.75-0.01 8.6-0.47 13-1.02 4.4-0.55 12.73-2.35 18.5-4 5.78-1.65 11.74-3 13.25-3 1.51 0 3.94 0.79 5.4 1.75 1.45 0.96 6.4 7.49 11 14.5 4.59 7.01 10.04 14.6 12.1 16.87 2.06 2.27 5.55 5.18 7.75 6.46 2.2 1.29 6.93 3.5 10.5 4.91 3.57 1.41 11.9 4.17 18.5 6.13 6.6 1.96 21 5.98 32 8.94l20 5.37c3.2-3.43 10.1-10.51 17.39-17.93l13.27-13.5c-1.54-11.62-1.69-15.6-1.33-16.34 0.37-0.74 3.03-2.65 5.92-4.25 2.89-1.6 7.09-4.6 9.34-6.66 2.25-2.06 5.39-5.77 6.98-8.25 1.59-2.48 2.89-5.17 2.89-6 0-0.83-1.57-5.33-3.49-10-1.92-4.67-3.48-9.29-3.48-10.25 0.01-0.96 1.02-2.66 2.26-3.78 1.24-1.11 4.73-3.77 7.75-5.89 3.02-2.13 6.85-5.3 8.5-7.04 2.77-2.93 3-3.74 3-10.43 0-6.54-0.3-7.65-3-11.14-1.65-2.14-7.5-7.65-13-12.24-5.5-4.6-14.73-11.56-20.5-15.49-5.77-3.92-13.87-8.65-18-10.52-4.12-1.86-13.35-5.01-20.5-6.99-7.15-1.99-12.32-3.8-11.5-4.02 0.82-0.23 4.88 0.35 9 1.29 4.13 0.93 12.45 3.29 18.5 5.23 6.05 1.95 14.38 5.07 18.5 6.93 4.13 1.87 8.85 3.66 10.5 3.99q3 0.58 3.86-0.78c0.58-0.94-0.11-2.32-2.19-4.37-1.67-1.65-7.68-5.76-13.36-9.13-5.67-3.37-13.01-7.48-16.31-9.13-3.3-1.64-9.26-4.17-13.25-5.62-3.99-1.44-8.94-2.61-11-2.59-2.06 0.02-6.01 0.81-8.77 1.75z"/>
		</g>
	</g>
</svg>