<svg version="1.2" xmlns="http://www.w3.org/2000/svg" viewBox="0 0 478 477" width="478" height="477">
	<style>
		.s0 { opacity: 1;fill: #052945 } 
		.s1 { opacity: 1;fill: #ffffff } 
	</style>
	<g id="레이어 1">
		<path id="Path 0" class="s0" d="m261 1.53c0.82 0.16 5.55 0.82 10.5 1.46 4.95 0.65 16.2 2.92 25 5.06 8.8 2.13 18.93 4.99 22.5 6.34 3.57 1.35 8.75 3.45 11.5 4.66 2.75 1.22 8.6 3.89 13 5.94 4.4 2.04 12.73 6.61 18.5 10.15 5.77 3.54 14.1 9.09 18.5 12.33 4.4 3.25 10.02 7.7 12.5 9.9 2.48 2.21 9.68 9.22 16 15.59 6.32 6.37 14.49 15.4 18.14 20.06 3.65 4.67 9.76 13.43 13.58 19.48 3.81 6.05 8.76 14.6 10.99 19 2.24 4.4 5.75 12.05 7.81 17 2.06 4.95 4.59 11.7 5.62 15 1.04 3.3 3.21 11.4 4.85 18 1.63 6.6 3.66 16.05 4.51 21 0.84 4.95 1.97 15.07 2.49 22.5 0.6 8.52 0.6 18.85 0.01 28-0.52 7.98-1.43 17.2-2.02 20.5-0.58 3.3-1.77 9.38-2.63 13.5-0.87 4.13-3.1 12.79-4.96 19.25-1.86 6.46-4.74 15.13-6.39 19.25-1.65 4.13-4.89 11.44-7.21 16.25-2.31 4.81-7.14 13.7-10.72 19.75-3.58 6.05-9.9 15.48-14.04 20.96-4.14 5.49-13.38 15.85-20.53 23.04-7.15 7.18-14.57 14.41-16.5 16.05-1.93 1.65-6.2 5.06-9.5 7.59-3.3 2.53-11.18 7.86-17.5 11.85-6.32 3.99-14.65 8.83-18.5 10.77-3.85 1.93-11.05 5.26-16 7.41-4.95 2.14-15.3 5.68-23 7.86-7.7 2.19-17.38 4.67-21.5 5.53-4.13 0.86-12 2.2-17.5 2.98-5.84 0.83-18.1 1.43-29.5 1.44-14.07 0.01-23.12-0.52-32.5-1.9-7.15-1.06-17.73-3.12-23.5-4.59-5.77-1.46-14.1-3.79-18.5-5.17-4.4-1.38-11.6-4.09-16-6.03-4.4-1.94-11.82-5.44-16.5-7.79-4.68-2.35-12.1-6.47-16.5-9.15-4.4-2.68-10.25-6.42-13-8.3-2.75-1.88-8.38-6.14-12.5-9.48-4.13-3.33-13.29-11.91-20.37-19.06-7.08-7.16-15.63-16.61-19-21-3.37-4.4-9-12.5-12.51-18-3.52-5.51-8.76-14.74-11.65-20.51-2.9-5.77-6.5-13.43-8-17-1.5-3.57-3.82-9.65-5.14-13.5-1.32-3.85-3.94-13.3-5.83-21-1.88-7.7-4.12-19.29-4.96-25.75-0.92-7.03-1.53-19.28-1.52-30.5 0.01-10.76 0.62-23.01 1.44-28.75 0.78-5.5 2.37-14.28 3.53-19.5 1.16-5.22 3.48-14.22 5.16-20 1.67-5.78 5.12-15.45 7.65-21.5 2.54-6.05 6.68-15.05 9.21-20 2.53-4.95 6.8-12.37 9.49-16.5 2.7-4.12 7.44-10.87 10.55-15 3.1-4.12 7.62-9.75 10.04-12.5 2.42-2.75 8.9-9.46 14.41-14.91 5.5-5.46 14.5-13.52 20-17.92 5.5-4.41 14.39-10.86 19.75-14.34 5.36-3.48 13.01-7.97 17-9.97 3.99-2 12.2-5.77 18.25-8.37 6.05-2.61 16.85-6.35 24-8.33 7.15-1.98 16.6-4.31 21-5.19 4.4-0.87 12.27-2.22 17.5-2.99 5.95-0.89 16.97-1.39 29.5-1.33 11 0.04 20.68 0.22 21.5 0.38z"/>
		<path id="Path 1" class="s1" d="m293 104.26c11.27 11.14 20.38 20.7 20.25 21.25-0.13 0.54-25.78 26.34-56.99 57.32l-56.76 56.32c87.9 87.07 113.44 112.8 113.47 113.35 0.02 0.55-9.08 10.11-20.22 21.25-11.14 11.13-20.7 20.24-21.25 20.24-0.55 0-35.88-34.88-78.5-77.51l-77.5-77.5c120.13-120.11 155.45-154.98 156.01-154.98 0.55 0 10.23 9.12 21.49 20.26z"/>
	</g>
</svg>